<?xml version="1.0" encoding="utf-8"?>
<!-- Generator: Adobe Illustrator 16.0.0, SVG Export Plug-In . SVG Version: 6.00 Build 0)  -->
<!DOCTYPE svg PUBLIC "-//W3C//DTD SVG 1.1//EN" "http://www.w3.org/Graphics/SVG/1.1/DTD/svg11.dtd">
<svg version="1.1" id="Layer_1" xmlns="http://www.w3.org/2000/svg" xmlns:xlink="http://www.w3.org/1999/xlink" x="0px" y="0px"
	 width="792px" height="612px" viewBox="0 0 792 612" enable-background="new 0 0 792 612" xml:space="preserve">
<path stroke="#FFFFFF" stroke-width="0.824" d="M6.192,6.266H2.732L2.717,16.542H0V3.001C0,2.089,0.396,1.36,1.188,0.817
	C1.98,0.271,2.974,0,4.168,0h2.023v2.012h-1.42c-0.609,0-1.103,0.152-1.484,0.454c-0.38,0.302-0.57,0.683-0.57,1.146v0.561h3.475
	V6.266z"/>
<path stroke="#FFFFFF" stroke-width="0.824" d="M11.812,16.542H9.095V4.139h2.717V16.542z M11.812,0.083v2.16H9.218v-2.16H11.812z"
	/>
<path stroke="#FFFFFF" stroke-width="0.824" d="M27.146,6.266h-7.181c-0.649,0-1.133,0.083-1.451,0.249
	c-0.443,0.22-0.664,0.521-0.664,0.907v0.512c0,0.857,0.726,1.286,2.177,1.286h3.552c1.029,0,1.875,0.269,2.539,0.809
	c0.664,0.539,0.997,1.226,0.997,2.061v1.518c0,0.793-0.334,1.491-1.003,2.095c-0.401,0.386-0.824,0.622-1.267,0.709
	c-0.36,0.089-0.891,0.132-1.59,0.132h-8.122v-2.127h7.396c0.763,0,1.272-0.158,1.529-0.478c0.185-0.242,0.277-0.683,0.277-1.32
	c0-0.847-0.592-1.27-1.775-1.27h-3.35c-1.133,0-2.07-0.237-2.811-0.709c-0.824-0.527-1.236-1.215-1.236-2.062V6.91
	c0-0.924,0.473-1.665,1.421-2.227c0.577-0.362,1.461-0.544,2.656-0.544h7.906V6.266z"/>
<path stroke="#FFFFFF" stroke-width="0.824" d="M33.091,0.049v4.139h6.068c2.893,0,4.34,1.315,4.34,3.943v8.345h-2.688V9.054
	c0-0.823-0.159-1.401-0.478-1.73c-0.319-0.332-0.885-0.496-1.699-0.496h-4.88c-0.443,0-0.663,0.22-0.663,0.66v9.021h-2.718V0.049
	H33.091z"/>
<path stroke="#FFFFFF" stroke-width="0.824" d="M49.149,16.542h-2.717V4.139h2.717V16.542z M49.149,0.083v2.16h-2.594v-2.16H49.149z
	"/>
<path stroke="#FFFFFF" stroke-width="0.824" d="M62.63,16.509V8.643c0-1.264-0.762-1.898-2.285-1.898h-3.025
	c-1.545,0-2.316,0.634-2.316,1.898v7.866h-2.718V7.9c0-2.529,1.379-3.793,4.138-3.793h4.787c2.738,0,4.107,1.265,4.107,3.793v8.609
	H62.63z"/>
<path stroke="#FFFFFF" stroke-width="0.824" d="M81.841,17.944c0,2.32-1.54,3.479-4.617,3.479h-8.633v-2.208h8.292
	c0.968,0,1.611-0.215,1.931-0.645c0.206-0.329,0.309-0.901,0.309-1.716h-5.977c-1.492,0-2.613-0.282-3.365-0.849
	s-1.127-1.355-1.127-2.367V7.619c0-1.208,0.326-2.107,0.98-2.697c0.652-0.587,1.742-0.882,3.266-0.882h4.509
	c1.544,0,2.669,0.252,3.374,0.759c0.705,0.506,1.059,1.363,1.059,2.573V17.944z M79.153,14.167V8.099
	c0-0.639-0.149-1.073-0.447-1.305c-0.464-0.396-1.072-0.593-1.823-0.593h-3.396c-1.431,0-2.146,0.588-2.146,1.765v5.015
	c0,1.12,0.792,1.682,2.378,1.682h4.834C78.952,14.663,79.153,14.498,79.153,14.167z"/>
</svg>
