<?xml version="1.0" encoding="utf-8"?>
<!-- Generator: Adobe Illustrator 16.0.0, SVG Export Plug-In . SVG Version: 6.00 Build 0)  -->
<!DOCTYPE svg PUBLIC "-//W3C//DTD SVG 1.1//EN" "http://www.w3.org/Graphics/SVG/1.1/DTD/svg11.dtd">
<svg version="1.1" id="Layer_1" xmlns="http://www.w3.org/2000/svg" xmlns:xlink="http://www.w3.org/1999/xlink" x="0px" y="0px"
	 width="792px" height="612px" viewBox="0 0 792 612" enable-background="new 0 0 792 612" xml:space="preserve">
<g>
	<path stroke="#FFFFFF" stroke-width="0.824" d="M17.547,0.268c-4.457,0-8.299,1.771-10.139,4.337L0,0l0.195,18.77l7.74-6.703
		c1.991,2.207,5.545,3.684,9.612,3.684c6.241,0,11.301-3.467,11.301-7.742C28.848,3.733,23.788,0.268,17.547,0.268z"/>
	<circle fill="#FFFFFF" stroke="#FFFFFF" stroke-width="0.824" cx="26.946" cy="5.715" r="0.559"/>
	<g>
		<path fill="#FFFFFF" d="M27.1,10.896c-0.824,0.204-2.208-0.657-2.571-1.369c-0.345-0.676-2.224-0.054-1.932,0.518
			c0.822,1.609,3.109,2.253,4.769,1.842c0.282-0.07,0.941-0.35,0.833-0.754C28.088,10.721,27.382,10.826,27.1,10.896L27.1,10.896z"
			/>
	</g>
</g>
</svg>
