<?xml version="1.0" encoding="utf-8"?>
<!-- Generator: Adobe Illustrator 16.0.0, SVG Export Plug-In . SVG Version: 6.00 Build 0)  -->
<!DOCTYPE svg PUBLIC "-//W3C//DTD SVG 1.1//EN" "http://www.w3.org/Graphics/SVG/1.1/DTD/svg11.dtd">
<svg version="1.1" id="Layer_1" xmlns="http://www.w3.org/2000/svg" xmlns:xlink="http://www.w3.org/1999/xlink" x="0px" y="0px"
	 width="792px" height="612px" viewBox="0 0 792 612" enable-background="new 0 0 792 612" xml:space="preserve">
<path stroke="#FFFFFF" stroke-width="0.824" d="M91.351,6.399h-3.441v10.143H85.19V0h2.719v4.321h3.441V6.399z"/>
<path stroke="#FFFFFF" stroke-width="0.824" d="M101.28,6.102c-2.1,0-3.319,0.044-3.658,0.131C96.901,6.465,96.54,7.021,96.54,7.9
	v8.577h-2.811V7.324c0-2.232,1.467-3.35,4.402-3.35h3.148V6.102z"/>
<path stroke="#FFFFFF" stroke-width="0.824" d="M106.423,16.542h-2.718V4.139h2.718V16.542z M106.423,0.083v2.16h-2.594v-2.16
	H106.423z"/>
<path stroke="#FFFFFF" stroke-width="0.824" d="M123.378,13.442c0,0.9-0.373,1.639-1.119,2.209
	c-0.746,0.572-1.701,0.857-2.865,0.857h-6.454v4.949h-2.718V7.389c0-2.21,1.338-3.316,4.015-3.316h4.864
	c2.852,0,4.277,1.083,4.277,3.251V13.442z M120.69,12.798v-5.08c0-1.011-0.726-1.517-2.177-1.517h-3.319
	c-1.504,0-2.255,0.567-2.255,1.699v5.971c0,0.362,0.242,0.544,0.726,0.544h5.004C120.017,14.415,120.69,13.876,120.69,12.798z"/>
<path stroke="#FFFFFF" stroke-width="0.824" d="M139.729,5.59c0,0.453-0.189,0.827-0.57,1.123l-9.574,7.669h9.76v2.16h-11.057
	c-0.659,0-1.229-0.135-1.713-0.403c-0.484-0.27-0.727-0.65-0.727-1.146c0-0.385,0.252-0.792,0.757-1.22l9.325-7.604h-9.773V4.04
	h11.102C138.907,4.04,139.729,4.558,139.729,5.59z"/>
<path stroke="#FFFFFF" stroke-width="0.2555" d="M141.249,16.034c0.101,0,0.187,0.033,0.256,0.101
	c0.07,0.066,0.107,0.151,0.107,0.251s-0.037,0.186-0.107,0.255c-0.069,0.07-0.152,0.104-0.248,0.104
	c-0.101,0-0.188-0.034-0.261-0.101s-0.11-0.151-0.11-0.251c0-0.102,0.035-0.186,0.106-0.256
	C141.063,16.068,141.149,16.034,141.249,16.034z"/>
<path stroke="#FFFFFF" stroke-width="0.2742" d="M145.619,13.981v1.633c0,0.781-0.295,1.174-0.885,1.174h-1.618
	c-0.566,0-0.85-0.331-0.85-0.99v-1.799h0.574v1.5c0,0.21,0.029,0.357,0.09,0.441c0.062,0.085,0.175,0.128,0.341,0.128h1.329
	c0.297,0,0.445-0.202,0.445-0.606v-1.48H145.619z"/>
<path stroke="#FFFFFF" stroke-width="0.2742" d="M144.792,9.711c0.285,0,0.502,0.117,0.653,0.351
	c0.116,0.167,0.174,0.417,0.174,0.753v1.246c0,0.383-0.075,0.668-0.223,0.857c-0.149,0.189-0.349,0.283-0.604,0.283h-1.668
	c-0.289,0-0.516-0.119-0.675-0.359c-0.116-0.174-0.173-0.434-0.173-0.781v-1.246c0-0.348,0.057-0.601,0.173-0.761
	c0.151-0.228,0.377-0.343,0.675-0.343H144.792z M144.636,10.43h-1.355c-0.154,0-0.268,0.056-0.338,0.168
	c-0.068,0.09-0.102,0.229-0.102,0.417v0.854c0,0.197,0.033,0.342,0.102,0.438c0.07,0.117,0.184,0.176,0.338,0.176h1.347
	c0.146,0,0.255-0.059,0.325-0.176c0.062-0.09,0.094-0.219,0.094-0.384v-0.958c0-0.162-0.031-0.284-0.094-0.368
	C144.882,10.486,144.775,10.43,144.636,10.43z"/>
<path stroke="#FFFFFF" stroke-width="0.2742" d="M145.601,4.588h-2.04c-0.278,0-0.455,0.102-0.528,0.303
	c-0.025,0.076-0.037,0.299-0.037,0.67c0,0.161,0.059,0.292,0.174,0.393c0.074,0.065,0.211,0.097,0.41,0.097h2.021v0.713h-2.021
	c-0.285,0-0.465,0.086-0.539,0.26c-0.029,0.091-0.045,0.312-0.045,0.664c0,0.374,0.188,0.56,0.565,0.56l2.04-0.008V8.96h-2.214
	c-0.729,0-1.093-0.349-1.093-1.047V7.259c0-0.213,0.029-0.381,0.091-0.503c0.061-0.123,0.174-0.24,0.34-0.352
	c-0.287-0.2-0.431-0.488-0.431-0.864V4.897c0-0.317,0.097-0.57,0.293-0.753c0.195-0.185,0.463-0.276,0.8-0.276h2.214V4.588z"/>
<path stroke="#FFFFFF" stroke-width="0.824" d="M6.192,6.266H2.732L2.717,16.542H0V3.001C0,2.089,0.396,1.36,1.188,0.817
	C1.98,0.271,2.974,0,4.168,0h2.023v2.012h-1.42c-0.609,0-1.103,0.152-1.484,0.454c-0.38,0.302-0.57,0.683-0.57,1.146v0.561h3.475
	V6.266z"/>
<path stroke="#FFFFFF" stroke-width="0.824" d="M11.812,16.542H9.095V4.139h2.717V16.542z M11.812,0.083v2.16H9.218v-2.16H11.812z"
	/>
<path stroke="#FFFFFF" stroke-width="0.824" d="M27.146,6.266h-7.181c-0.649,0-1.133,0.083-1.451,0.249
	c-0.443,0.22-0.664,0.521-0.664,0.907v0.512c0,0.857,0.726,1.286,2.177,1.286h3.552c1.029,0,1.875,0.269,2.539,0.809
	c0.664,0.539,0.997,1.226,0.997,2.061v1.518c0,0.793-0.334,1.491-1.003,2.095c-0.401,0.386-0.824,0.622-1.267,0.709
	c-0.36,0.089-0.891,0.132-1.59,0.132h-8.122v-2.127h7.396c0.763,0,1.272-0.158,1.529-0.478c0.185-0.242,0.277-0.683,0.277-1.32
	c0-0.847-0.592-1.27-1.775-1.27h-3.35c-1.133,0-2.07-0.237-2.811-0.709c-0.824-0.527-1.236-1.215-1.236-2.062V6.91
	c0-0.924,0.473-1.665,1.421-2.227c0.577-0.362,1.461-0.544,2.656-0.544h7.906V6.266z"/>
<path stroke="#FFFFFF" stroke-width="0.824" d="M33.091,0.049v4.139h6.068c2.893,0,4.34,1.315,4.34,3.943v8.345h-2.688V9.054
	c0-0.823-0.159-1.401-0.478-1.73c-0.319-0.332-0.885-0.496-1.699-0.496h-4.88c-0.443,0-0.663,0.22-0.663,0.66v9.021h-2.718V0.049
	H33.091z"/>
<path stroke="#FFFFFF" stroke-width="0.824" d="M49.15,16.542h-2.718V4.139h2.718V16.542z M49.15,0.083v2.16h-2.594v-2.16H49.15z"/>
<path stroke="#FFFFFF" stroke-width="0.824" d="M62.63,16.509V8.643c0-1.264-0.762-1.898-2.286-1.898h-3.026
	c-1.544,0-2.316,0.634-2.316,1.898v7.866h-2.717V7.9c0-2.529,1.379-3.793,4.138-3.793h4.787c2.738,0,4.108,1.265,4.108,3.793v8.609
	H62.63z"/>
<path stroke="#FFFFFF" stroke-width="0.824" d="M81.841,17.944c0,2.32-1.54,3.479-4.617,3.479h-8.633v-2.208h8.292
	c0.968,0,1.611-0.215,1.931-0.645c0.206-0.329,0.309-0.901,0.309-1.716h-5.976c-1.492,0-2.614-0.282-3.366-0.849
	c-0.751-0.566-1.127-1.355-1.127-2.367V7.619c0-1.208,0.327-2.107,0.981-2.697c0.652-0.587,1.742-0.882,3.266-0.882h4.509
	c1.544,0,2.669,0.252,3.374,0.759c0.705,0.506,1.059,1.363,1.059,2.573V17.944z M79.153,14.167V8.099
	c0-0.639-0.149-1.073-0.447-1.305c-0.464-0.396-1.072-0.593-1.823-0.593h-3.396c-1.431,0-2.146,0.588-2.146,1.765v5.015
	c0,1.12,0.792,1.682,2.378,1.682h4.834C78.952,14.663,79.153,14.498,79.153,14.167z"/>
</svg>
