<?xml version="1.0" encoding="utf-8"?>
<!-- Generator: Adobe Illustrator 16.0.0, SVG Export Plug-In . SVG Version: 6.00 Build 0)  -->
<!DOCTYPE svg PUBLIC "-//W3C//DTD SVG 1.1//EN" "http://www.w3.org/Graphics/SVG/1.1/DTD/svg11.dtd">
<svg version="1.1" id="Layer_1" xmlns="http://www.w3.org/2000/svg" xmlns:xlink="http://www.w3.org/1999/xlink" x="0px" y="0px"
	 width="792px" height="612px" viewBox="0 0 792 612" enable-background="new 0 0 792 612" xml:space="preserve">
<path stroke="#FFFFFF" stroke-width="0.824" d="M6.16,6.399H2.719v10.143H0V0h2.719v4.321H6.16V6.399z"/>
<path stroke="#FFFFFF" stroke-width="0.824" d="M16.09,6.103c-2.1,0-3.319,0.044-3.658,0.131C11.711,6.466,11.35,7.021,11.35,7.9
	v8.576H8.539V7.324c0-2.232,1.467-3.35,4.402-3.35h3.148V6.103z"/>
<path stroke="#FFFFFF" stroke-width="0.824" d="M21.232,16.542h-2.718V4.14h2.718V16.542z M21.232,0.083v2.16h-2.594v-2.16H21.232z"
	/>
<path stroke="#FFFFFF" stroke-width="0.824" d="M38.188,13.442c0,0.9-0.373,1.639-1.119,2.209c-0.746,0.572-1.701,0.857-2.865,0.857
	h-6.454v4.949h-2.718V7.389c0-2.21,1.338-3.315,4.015-3.315h4.864c2.852,0,4.277,1.083,4.277,3.251V13.442z M35.5,12.798v-5.08
	c0-1.011-0.726-1.517-2.177-1.517h-3.319c-1.504,0-2.255,0.567-2.255,1.699v5.971c0,0.362,0.242,0.544,0.726,0.544h5.004
	C34.826,14.415,35.5,13.876,35.5,12.798z"/>
<path stroke="#FFFFFF" stroke-width="0.824" d="M54.539,5.59c0,0.453-0.189,0.827-0.57,1.123l-9.574,7.669h9.76v2.16H43.098
	c-0.659,0-1.229-0.135-1.713-0.403c-0.484-0.27-0.727-0.65-0.727-1.146c0-0.385,0.252-0.792,0.757-1.22l9.325-7.604h-9.773V4.04
	h11.102C53.717,4.04,54.539,4.559,54.539,5.59z"/>
<path stroke="#FFFFFF" stroke-width="0.2555" d="M56.059,16.034c0.101,0,0.187,0.033,0.256,0.101
	c0.07,0.066,0.107,0.151,0.107,0.251s-0.037,0.186-0.107,0.255c-0.069,0.07-0.152,0.104-0.248,0.104
	c-0.101,0-0.188-0.034-0.261-0.101s-0.11-0.151-0.11-0.251c0-0.102,0.035-0.186,0.106-0.256
	C55.873,16.068,55.959,16.034,56.059,16.034z"/>
<path stroke="#FFFFFF" stroke-width="0.2742" d="M60.429,13.981v1.633c0,0.781-0.295,1.174-0.885,1.174h-1.618
	c-0.566,0-0.85-0.331-0.85-0.99v-1.799h0.574v1.5c0,0.21,0.029,0.357,0.09,0.441c0.062,0.085,0.175,0.128,0.341,0.128h1.329
	c0.297,0,0.445-0.202,0.445-0.606v-1.48H60.429z"/>
<path stroke="#FFFFFF" stroke-width="0.2742" d="M59.602,9.711c0.285,0,0.502,0.117,0.653,0.352
	c0.116,0.166,0.174,0.417,0.174,0.753v1.246c0,0.383-0.075,0.668-0.223,0.857c-0.149,0.189-0.349,0.283-0.604,0.283h-1.668
	c-0.289,0-0.516-0.119-0.675-0.359c-0.116-0.174-0.173-0.434-0.173-0.781v-1.246c0-0.348,0.057-0.601,0.173-0.761
	c0.151-0.228,0.377-0.344,0.675-0.344H59.602z M59.445,10.431H58.09c-0.154,0-0.268,0.056-0.338,0.168
	c-0.068,0.09-0.102,0.229-0.102,0.417v0.854c0,0.197,0.033,0.343,0.102,0.438c0.07,0.117,0.184,0.176,0.338,0.176h1.347
	c0.146,0,0.255-0.059,0.325-0.176c0.062-0.09,0.094-0.219,0.094-0.384v-0.957c0-0.162-0.031-0.284-0.094-0.368
	C59.691,10.486,59.585,10.431,59.445,10.431z"/>
<path stroke="#FFFFFF" stroke-width="0.2742" d="M60.41,4.588h-2.04c-0.278,0-0.455,0.102-0.528,0.304
	c-0.025,0.075-0.037,0.299-0.037,0.67c0,0.161,0.059,0.291,0.174,0.393c0.074,0.065,0.211,0.098,0.41,0.098h2.021v0.713h-2.021
	c-0.285,0-0.465,0.086-0.539,0.26c-0.029,0.092-0.045,0.312-0.045,0.664c0,0.373,0.188,0.56,0.565,0.56l2.04-0.008v0.721h-2.214
	c-0.729,0-1.093-0.349-1.093-1.048V7.259c0-0.213,0.029-0.381,0.091-0.503c0.061-0.123,0.174-0.24,0.34-0.352
	c-0.287-0.2-0.431-0.488-0.431-0.864V4.897c0-0.317,0.097-0.569,0.293-0.753c0.195-0.185,0.463-0.275,0.8-0.275h2.214V4.588z"/>
</svg>
