<?xml version="1.0" encoding="utf-8"?>
<!-- Generator: Adobe Illustrator 16.0.0, SVG Export Plug-In . SVG Version: 6.00 Build 0)  -->
<!DOCTYPE svg PUBLIC "-//W3C//DTD SVG 1.1//EN" "http://www.w3.org/Graphics/SVG/1.1/DTD/svg11.dtd">
<svg version="1.1" id="Layer_1" xmlns="http://www.w3.org/2000/svg" xmlns:xlink="http://www.w3.org/1999/xlink" x="0px" y="0px"
	 width="792px" height="612px" viewBox="0 0 792 612" enable-background="new 0 0 792 612" xml:space="preserve">
<g>
	<path d="M52.345,164.683l22.283,7.358v9.459L3.784,157.433v-11.038l70.841-24.174v9.775l-22.283,7.568v25.117h0.003V164.683z
		 M45.194,141.456l-20.388,6.936c-4.625,1.577-8.831,2.629-12.927,3.679v0.209c4.204,1.053,8.514,2.208,12.822,3.575l20.496,6.937
		v-21.336H45.194z"/>
	<path d="M0,112.454v-9.251h74.624v9.251H0z"/>
	<path d="M65.165,88.912c1.787-2.734,3.68-7.565,3.68-12.19c0-6.726-3.364-9.88-7.567-9.88c-4.415,0-6.833,2.63-9.354,9.459
		c-3.259,9.144-8.304,13.454-14.399,13.454c-8.199,0-14.924-6.624-14.924-17.552c0-5.149,1.473-9.669,3.153-12.508l6.726,2.313
		c-1.26,1.998-2.943,5.677-2.943,10.408c0,5.465,3.152,8.513,6.938,8.513c4.207,0,6.097-3.049,8.62-9.669
		c3.363-8.831,7.779-13.347,15.347-13.347c8.934,0,15.239,6.938,15.239,19.023c0,5.572-1.365,10.721-3.469,14.295L65.165,88.912z"/>
	<path d="M48.77,0c18.814,0,27.012,13.033,27.012,25.331c0,13.767-10.091,24.384-26.171,24.384
		c-17.026,0-27.012-11.143-27.012-25.225C22.599,9.879,33.214,0,48.77,0z M49.297,40.36c11.139,0,19.549-6.412,19.549-15.451
		c0-8.83-8.302-15.452-19.76-15.452c-8.619,0-19.552,4.31-19.552,15.239C29.534,35.632,39.626,40.36,49.297,40.36z"/>
</g>
</svg>
