<?xml version="1.0" encoding="utf-8"?>
<!-- Generator: Adobe Illustrator 16.0.0, SVG Export Plug-In . SVG Version: 6.00 Build 0)  -->
<!DOCTYPE svg PUBLIC "-//W3C//DTD SVG 1.1//EN" "http://www.w3.org/Graphics/SVG/1.1/DTD/svg11.dtd">
<svg version="1.1" id="Layer_1" xmlns="http://www.w3.org/2000/svg" xmlns:xlink="http://www.w3.org/1999/xlink" x="0px" y="0px"
	 width="792px" height="612px" viewBox="0 0 792 612" enable-background="new 0 0 792 612" xml:space="preserve">
<g>
	<path d="M6.96,7.359H1.735v4.846h5.823v1.456H0V0.219h7.259v1.456H1.735v4.248H6.96V7.359z"/>
	<path d="M9.811,0.399c0.877-0.18,2.134-0.279,3.331-0.279c1.854,0,3.051,0.339,3.889,1.097c0.678,0.598,1.057,1.516,1.057,2.553
		c0,1.775-1.117,2.951-2.533,3.43v0.06c1.037,0.359,1.655,1.316,1.975,2.712c0.438,1.875,0.758,3.171,1.037,3.689h-1.795
		c-0.22-0.379-0.519-1.536-0.897-3.211c-0.399-1.854-1.117-2.553-2.692-2.612h-1.635v5.823H9.811V0.399z M11.546,6.521h1.775
		c1.854,0,3.031-1.017,3.031-2.553c0-1.735-1.256-2.493-3.091-2.513c-0.837,0-1.436,0.08-1.715,0.159V6.521z"/>
	<path d="M20.54,13.661V0.219h1.895l4.308,6.801c0.997,1.576,1.775,2.992,2.413,4.368l0.04-0.02
		c-0.159-1.795-0.199-3.43-0.199-5.524V0.219h1.635v13.442h-1.755L24.608,6.84c-0.937-1.496-1.834-3.031-2.513-4.487l-0.06,0.02
		c0.1,1.695,0.14,3.311,0.14,5.544v5.744H20.54z"/>
	<path d="M40.622,7.359h-5.225v4.846h5.823v1.456h-7.559V0.219h7.259v1.456h-5.524v4.248h5.225V7.359z"/>
	<path d="M43.233,11.547c0.778,0.479,1.915,0.877,3.111,0.877c1.775,0,2.812-0.938,2.812-2.293c0-1.256-0.718-1.975-2.533-2.672
		c-2.193-0.778-3.55-1.915-3.55-3.81C43.074,1.556,44.809,0,47.421,0c1.376,0,2.374,0.319,2.972,0.658l-0.479,1.416
		c-0.439-0.239-1.336-0.638-2.553-0.638c-1.835,0-2.533,1.097-2.533,2.014c0,1.256,0.817,1.875,2.672,2.593
		c2.273,0.877,3.43,1.974,3.43,3.949c0,2.074-1.536,3.869-4.707,3.869c-1.296,0-2.712-0.379-3.431-0.857L43.233,11.547z"/>
	<path d="M55.856,1.695h-4.088V0.219h9.952v1.476h-4.108v11.966h-1.755V1.695z"/>
	<path d="M69.178,0.219v5.624h6.501V0.219h1.755v13.442h-1.755V7.359h-6.501v6.302h-1.735V0.219H69.178z"/>
	<path d="M87.405,7.359H82.18v4.846h5.823v1.456h-7.559V0.219h7.259v1.456H82.18v4.248h5.225V7.359z"/>
	<path d="M101.583,7.758c-0.1-1.875-0.219-4.128-0.199-5.803h-0.06c-0.458,1.575-1.017,3.25-1.695,5.105l-2.374,6.521h-1.316
		L93.766,7.18c-0.638-1.895-1.177-3.63-1.556-5.225h-0.04c-0.04,1.675-0.14,3.929-0.259,5.943l-0.359,5.764h-1.655l0.938-13.442
		h2.213l2.293,6.501c0.559,1.655,1.017,3.131,1.356,4.527h0.06c0.339-1.356,0.818-2.832,1.416-4.527l2.393-6.501h2.214l0.837,13.442
		h-1.695L101.583,7.758z"/>
	<path d="M108.023,0.219v13.442h-1.735V0.219H108.023z"/>
	<path d="M111.054,13.661V0.219h1.895l4.308,6.801c0.997,1.576,1.775,2.992,2.413,4.368l0.04-0.02
		c-0.159-1.795-0.199-3.43-0.199-5.524V0.219h1.635v13.442h-1.755l-4.268-6.821c-0.937-1.496-1.834-3.031-2.513-4.487l-0.06,0.02
		c0.1,1.695,0.14,3.311,0.14,5.544v5.744H111.054z"/>
	<path d="M134.407,13.063c-0.778,0.279-2.313,0.738-4.128,0.738c-2.034,0-3.709-0.519-5.025-1.775
		c-1.157-1.117-1.875-2.912-1.875-5.006c0.02-4.009,2.772-6.94,7.279-6.94c1.556,0,2.772,0.339,3.351,0.619l-0.419,1.416
		c-0.718-0.319-1.615-0.578-2.971-0.578c-3.271,0-5.405,2.034-5.405,5.405c0,3.41,2.054,5.424,5.185,5.424
		c1.137,0,1.915-0.16,2.313-0.359V7.997h-2.732V6.601h4.427V13.063z"/>
	<path d="M139.252,13.661l-3.41-13.442h1.834l1.596,6.801c0.399,1.675,0.758,3.351,0.997,4.647h0.04
		c0.219-1.336,0.638-2.932,1.097-4.667l1.795-6.781h1.815l1.635,6.821c0.379,1.595,0.738,3.191,0.938,4.607h0.04
		c0.279-1.476,0.658-2.972,1.077-4.647l1.775-6.781h1.775l-3.809,13.442h-1.815l-1.695-7c-0.418-1.715-0.698-3.031-0.877-4.388
		h-0.04c-0.24,1.336-0.539,2.652-1.037,4.388l-1.915,7H139.252z"/>
	<path d="M154.966,9.433l-1.396,4.228h-1.795l4.567-13.442h2.094l4.587,13.442h-1.854l-1.436-4.228H154.966z M159.374,8.077
		l-1.316-3.869c-0.299-0.877-0.499-1.675-0.698-2.453h-0.04c-0.2,0.798-0.419,1.616-0.678,2.433l-1.316,3.889H159.374z"/>
	<path d="M166.413,13.661V7.958l-4.248-7.738h1.975l1.895,3.709c0.519,1.017,0.917,1.835,1.336,2.772h0.04
		c0.379-0.878,0.837-1.755,1.356-2.772l1.935-3.709h1.975l-4.507,7.718v5.724H166.413z"/>
</g>
</svg>
