<?xml version="1.0" encoding="utf-8"?>
<!-- Generator: Adobe Illustrator 16.0.0, SVG Export Plug-In . SVG Version: 6.00 Build 0)  -->
<!DOCTYPE svg PUBLIC "-//W3C//DTD SVG 1.1//EN" "http://www.w3.org/Graphics/SVG/1.1/DTD/svg11.dtd">
<svg version="1.1" id="Layer_1" xmlns="http://www.w3.org/2000/svg" xmlns:xlink="http://www.w3.org/1999/xlink" x="0px" y="0px"
	 width="792px" height="612px" viewBox="0 0 792 612" enable-background="new 0 0 792 612" xml:space="preserve">
<g>
	<path d="M0,1.132C3.561,0.404,8.66,0,13.516,0c7.526,0,12.381,1.375,15.781,4.451c2.75,2.427,4.289,6.15,4.289,10.358
		c0,7.202-4.531,11.977-10.278,13.919v0.243c4.208,1.457,6.717,5.341,8.012,11.005c1.781,7.608,3.075,12.868,4.208,14.972h-7.284
		c-0.891-1.538-2.104-6.231-3.641-13.029c-1.619-7.526-4.533-10.359-10.926-10.602H7.041v23.63H0V1.132z M7.041,25.977h7.203
		c7.526,0,12.301-4.127,12.301-10.358c0-7.041-5.099-10.116-12.543-10.197c-3.399,0-5.827,0.324-6.96,0.647V25.977z"/>
	<path d="M52.031,4.774c0.081,2.428-1.699,4.37-4.531,4.37c-2.509,0-4.29-1.942-4.29-4.37c0-2.509,1.861-4.451,4.451-4.451
		C50.332,0.323,52.031,2.265,52.031,4.774z M44.1,54.949V15.781h7.122v39.168H44.1z"/>
	<path d="M62.063,47.666c2.104,1.376,5.827,2.833,9.387,2.833c5.18,0,7.607-2.59,7.607-5.827c0-3.398-2.022-5.26-7.283-7.202
		c-7.041-2.509-10.359-6.393-10.359-11.087c0-6.312,5.099-11.492,13.516-11.492c3.964,0,7.444,1.133,9.63,2.428l-1.781,5.179
		c-1.538-0.971-4.371-2.265-8.012-2.265c-4.208,0-6.556,2.427-6.556,5.34c0,3.237,2.347,4.694,7.446,6.636
		c6.798,2.59,10.277,5.989,10.277,11.816c0,6.878-5.341,11.733-14.648,11.733c-4.289,0-8.254-1.051-11.006-2.67L62.063,47.666z"/>
	<path d="M99.044,36.659c0.162,9.63,6.312,13.596,13.434,13.596c5.099,0,8.174-0.891,10.844-2.023l1.214,5.099
		c-2.508,1.133-6.798,2.427-13.029,2.427c-12.058,0-19.261-7.93-19.261-19.745c0-11.816,6.96-21.123,18.371-21.123
		c12.786,0,16.186,11.25,16.186,18.451c0,1.457-0.162,2.59-0.243,3.318H99.044z M119.923,31.562
		c0.081-4.533-1.861-11.572-9.873-11.572c-7.203,0-10.359,6.636-10.926,11.572H119.923z"/>
	<path d="M134.647,47.666c2.104,1.376,5.827,2.833,9.388,2.833c5.179,0,7.607-2.59,7.607-5.827c0-3.398-2.023-5.26-7.284-7.202
		C137.317,34.96,134,31.076,134,26.382c0-6.312,5.099-11.492,13.516-11.492c3.964,0,7.445,1.133,9.63,2.428l-1.781,5.179
		c-1.538-0.971-4.371-2.265-8.012-2.265c-4.208,0-6.555,2.427-6.555,5.34c0,3.237,2.347,4.694,7.445,6.636
		c6.798,2.59,10.277,5.989,10.277,11.816c0,6.878-5.34,11.733-14.647,11.733c-4.289,0-8.255-1.051-11.006-2.67L134.647,47.666z"/>
</g>
</svg>
