<?xml version="1.0" encoding="utf-8"?>
<!-- Generator: Adobe Illustrator 16.0.0, SVG Export Plug-In . SVG Version: 6.00 Build 0)  -->
<!DOCTYPE svg PUBLIC "-//W3C//DTD SVG 1.1//EN" "http://www.w3.org/Graphics/SVG/1.1/DTD/svg11.dtd">
<svg version="1.1" id="Layer_1" xmlns="http://www.w3.org/2000/svg" xmlns:xlink="http://www.w3.org/1999/xlink" x="0px" y="0px"
	 width="792px" height="612px" viewBox="0 0 792 612" enable-background="new 0 0 792 612" xml:space="preserve">
<g>
	<path d="M11.938,6.406H0v-4.31h29.059v4.31H17.062v34.94h-5.125V6.406z"/>
	<path d="M32.846,0h5.124v17.587h0.117c0.815-1.456,2.097-2.737,3.669-3.61c1.514-0.874,3.319-1.456,5.241-1.456
		c3.785,0,9.841,2.33,9.841,12.055v16.771h-5.124V25.157c0-4.542-1.688-8.386-6.522-8.386c-3.319,0-5.94,2.33-6.872,5.125
		c-0.291,0.699-0.35,1.456-0.35,2.446v17.004h-5.124V0z"/>
	<path d="M68.019,28.185c0.117,6.93,4.542,9.784,9.667,9.784c3.669,0,5.881-0.641,7.804-1.456l0.874,3.668
		c-1.806,0.815-4.892,1.748-9.375,1.748c-8.677,0-13.86-5.707-13.86-14.209c0-8.502,5.008-15.199,13.219-15.199
		c9.201,0,11.646,8.095,11.646,13.277c0,1.048-0.117,1.864-0.175,2.387H68.019z M83.044,24.517c0.058-3.261-1.34-8.328-7.104-8.328
		c-5.183,0-7.454,4.776-7.861,8.328H83.044z"/>
	<path d="M106.164,35.173c2.271,1.398,5.591,2.563,9.085,2.563c5.183,0,8.211-2.738,8.211-6.698c0-3.669-2.097-5.765-7.396-7.803
		c-6.406-2.271-10.365-5.59-10.365-11.123c0-6.115,5.066-10.657,12.695-10.657c4.018,0,6.93,0.932,8.677,1.922l-1.398,4.135
		c-1.281-0.699-3.902-1.863-7.454-1.863c-5.358,0-7.396,3.202-7.396,5.881c0,3.669,2.387,5.474,7.803,7.57
		c6.639,2.562,10.017,5.765,10.017,11.53c0,6.057-4.484,11.297-13.744,11.297c-3.785,0-7.92-1.107-10.016-2.504L106.164,35.173z"/>
	<path d="M158.982,33.66c0,2.912,0.059,5.474,0.234,7.687h-4.542l-0.292-4.6h-0.116c-1.339,2.271-4.309,5.241-9.317,5.241
		c-4.426,0-9.725-2.446-9.725-12.346v-16.48h5.124v15.606c0,5.357,1.631,8.969,6.29,8.969c3.435,0,5.823-2.388,6.754-4.659
		c0.292-0.757,0.467-1.689,0.467-2.621V13.161h5.124V33.66z"/>
	<path d="M167.486,20.79c0-2.912-0.059-5.3-0.233-7.629h4.542l0.292,4.658h0.116c1.398-2.679,4.659-5.299,9.317-5.299
		c3.902,0,9.958,2.33,9.958,11.997v16.829h-5.124V25.1c0-4.542-1.689-8.328-6.522-8.328c-3.377,0-5.998,2.388-6.872,5.242
		c-0.233,0.64-0.35,1.514-0.35,2.387v16.946h-5.124V20.79z"/>
</g>
</svg>
